<svg xmlns="http://www.w3.org/2000/svg" id="mainsvg" width="768.10185546875" height="909.8000000000001" viewBox="-10 -10 698.2744140625 828"><defs><marker id="arrow" viewBox="0 0 10 10" refX="10" refY="5" markerWidth="5" markerHeight="5" orient="auto-start-reverse" fill="black"><path stroke="black" d="M 0 0 L 10 5 L 0 10 z"/></marker><marker id="Many" viewBox="0 0 16 16" refX="15" refY="8" markerWidth="15" markerHeight="15" orient="auto-start-reverse"><path stroke="black" d="M0 8H15M15 15L2 8L15 1" fill="none"/></marker><marker id="ZeroOrOne" viewBox="0 0 16 10" refX="15" refY="5" markerWidth="21" markerHeight="21" orient="auto-start-reverse"><path d="M9 5H16" stroke="black" fill="none"/><circle cx="5" cy="5" r="4.5" stroke="black" fill="#fff"/><path d="M12 0L12 10" stroke="black" fill="none"/></marker><marker id="OneOnlyOne" viewBox="0 0 10 14" refX="10" refY="7" markerWidth="13" markerHeight="13" orient="auto-start-reverse"><path d="M0 7H4M4 7H7M4 7V0M4 7V14M7 7H10M7 7V0M7 7V14" stroke="black" fill="none"/></marker><marker id="OneOrMany" viewBox="0 0 16 16" refX="15" refY="8" markerWidth="15" markerHeight="15" orient="auto-start-reverse"><path stroke="black" d="M2 1V15M2 8L15 15M2 8L15 1M2 8H0M2 8H15" fill="none"/></marker><marker id="ZeroOrMany" viewBox="0 0 25 16" refX="23" refY="8" markerWidth="25" markerHeight="25" orient="auto-start-reverse"><path d="M13 8H27M27 15L14 8L27 1" stroke="black" fill="none"/><path d="M13.5 7.5C13.5 10.7795 10.6254 13.5 7 13.5C3.37461 13.5 0.5 10.7795 0.5 7.5C0.5 4.22054 3.37461 1.5 7 1.5C10.6254 1.5 13.5 4.22054 13.5 7.5Z" stroke="black" fill="#fff"/></marker><marker id="aggregation" viewBox="0 0 10 6" refX="9.3" refY="2.8" markerWidth="23" markerHeight="15" orient="auto-start-reverse"><path stroke="black" fill="#fff" stroke-width="0.7" d="M1.01614 2.82609L5 0.574341L8.98386 2.82609L5 5.07783L1.01614 2.82609Z"/></marker><marker id="composition" viewBox="0 0 10 6" refX="9.7" refY="2.8" markerWidth="18" markerHeight="15" orient="auto-start-reverse"><path stroke="black" fill="black" d="M1.01614 2.82609L5 0.574341L8.98386 2.82609L5 5.07783L1.01614 2.82609Z"/></marker><marker id="implementation" viewBox="0 0 8 10" refX="8" refY="5" markerWidth="20" markerHeight="20" orient="auto-start-reverse"><path stroke="black" fill="#fff" stroke-width="0.7" d="M0.750001 1.10289L7.5 5L0.750001 8.89712L0.750001 1.10289Z"/></marker><marker id="dependency" viewBox="0 0 12 12" refX="11" refY="6" markerWidth="12" markerHeight="11" orient="auto-start-reverse"><path stroke="black" fill="#fff" d="M1 5.93162H10.886M10.886 5.93162L1 0.5M10.886 5.93162L1 11"/></marker><marker id="inheritance" viewBox="0 0 8 10" refX="8" refY="5" markerWidth="20" markerHeight="20" orient="auto-start-reverse"><path stroke="black" fill="#fff" stroke-width="0.7" d="M0.750001 1.10289L7.5 5L0.750001 8.89712L0.750001 1.10289Z"/></marker><marker id="association" viewBox="0 0 12 12" refX="11" refY="6" markerWidth="12" markerHeight="11" orient="auto-start-reverse"><path stroke="black" d="M1 5.93162H10.886M10.886 5.93162L1 0.5M10.886 5.93162L1 11"/></marker><filter id="shadowOLD" x="-50%" y="-50%" width="250%" height="250%"><feDropShadow flood-color="black" flood-opacity="0.3" dx="1" dy="1" stdDeviation="2"> </feDropShadow></filter><filter id="shadow-path" filterUnits="userSpaceOnUse" x="-10" y="-10" width="698.2744140625px" height="818px"><feDropShadow flood-color="black" flood-opacity="0.1" dx="1" dy="1" stdDeviation="1"> </feDropShadow></filter><filter id="shadow" filterUnits="userSpaceOnUse" x="-10" y="-10" width="798.2744140625px" height="918px"><feDropShadow flood-color="black" flood-opacity="0.1" dx="1" dy="1" stdDeviation="1"> </feDropShadow></filter></defs><rect x="-10" y="-10" width="698.2744140625" height="818" fill="#fff"/><g transform="translate(0, 0)"><rect width="49.78125" height="70" stroke="black" fill="white" stroke-width="2" transform="translate(0, 0)" rx="3"/><text fill="black" font-size="16" font-weight="normal" transform="translate(8, 26)" alignment-baseline="middle" font-family="Arial"><tspan x="0" dy="16" font-family="Arial" font-size="16" font-weight="normal">User</tspan></text></g><g transform="translate(275.470703125, 0)"><rect width="85.3359375" height="70" stroke="black" fill="white" stroke-width="2" transform="translate(0, 0)" rx="3"/><text fill="black" font-size="16" font-weight="normal" transform="translate(8, 17)" alignment-baseline="middle" font-family="Arial"><tspan x="0" dy="16" font-family="Arial" font-size="16" font-weight="normal">Client </tspan><tspan x="0" dy="16" font-family="Arial" font-size="16" font-weight="normal">(Browser)</tspan></text></g><g transform="translate(499.5322265625, 0)"><rect width="178.7421875" height="70" stroke="black" fill="white" stroke-width="2" transform="translate(0, 0)" rx="3"/><text fill="black" font-size="16" font-weight="normal" transform="translate(8, 8)" alignment-baseline="middle" font-family="Arial"><tspan x="0" dy="16" font-family="Arial" font-size="16" font-weight="normal">External API</tspan><tspan x="0" dy="16" font-family="Arial" font-size="16" font-weight="normal">https://chitter-backend-</tspan><tspan x="0" dy="16" font-family="Arial" font-size="16" font-weight="normal">api-v2.herokuapp.com</tspan></text></g><path d="M 24.890625,82 L 38.890625 82 L 38.890625 106 L 24.890625 106" fill="none" stroke="black" stroke-dasharray="none" stroke-width="2" marker-end="url(#arrow)"/><path d="M 24.890625,162 L 318.138671875 162" fill="none" stroke="black" stroke-dasharray="none" stroke-width="2" marker-end="url(#arrow)"/><path d="M 318.138671875,170 L 332.138671875 170 L 332.138671875 210 L 318.138671875 210" fill="none" stroke="black" stroke-dasharray="none" stroke-width="2" marker-end="url(#arrow)"/><path d="M 318.138671875,250 L 588.9033203125 250" fill="none" stroke="black" stroke-dasharray="none" stroke-width="2" marker-end="url(#arrow)"/><path d="M 588.9033203125,286 L 318.138671875 286" fill="none" stroke="black" stroke-dasharray="none" stroke-width="2" marker-end="url(#arrow)"/><path d="M 318.138671875,294 L 332.138671875 294 L 332.138671875 318 L 318.138671875 318" fill="none" stroke="black" stroke-dasharray="none" stroke-width="2" marker-end="url(#arrow)"/><path d="M 318.138671875,358 L 24.890625 358" fill="none" stroke="black" stroke-dasharray="none" stroke-width="2" marker-end="url(#arrow)"/><path d="M 24.890625,410 L 318.138671875 410" fill="none" stroke="black" stroke-dasharray="none" stroke-width="2" marker-end="url(#arrow)"/><path d="M 318.138671875,418 L 332.138671875 418 L 332.138671875 458 L 318.138671875 458" fill="none" stroke="black" stroke-dasharray="none" stroke-width="2" marker-end="url(#arrow)"/><path d="M 318.138671875,498 L 588.9033203125 498" fill="none" stroke="black" stroke-dasharray="none" stroke-width="2" marker-end="url(#arrow)"/><path d="M 588.9033203125,550 L 318.138671875 550" fill="none" stroke="black" stroke-dasharray="none" stroke-width="2" marker-end="url(#arrow)"/><path d="M 318.138671875,558 L 332.138671875 558 L 332.138671875 582 L 318.138671875 582" fill="none" stroke="black" stroke-dasharray="none" stroke-width="2" marker-end="url(#arrow)"/><path d="M 318.138671875,622 L 588.9033203125 622" fill="none" stroke="black" stroke-dasharray="none" stroke-width="2" marker-end="url(#arrow)"/><path d="M 588.9033203125,658 L 318.138671875 658" fill="none" stroke="black" stroke-dasharray="none" stroke-width="2" marker-end="url(#arrow)"/><path d="M 318.138671875,666 L 332.138671875 666 L 332.138671875 722 L 318.138671875 722" fill="none" stroke="black" stroke-dasharray="none" stroke-width="2" marker-end="url(#arrow)"/><path d="M 318.138671875,778 L 24.890625 778" fill="none" stroke="black" stroke-dasharray="none" stroke-width="2" marker-end="url(#arrow)"/><path d="M 24.890625,70 L 24.890625 798" fill="none" stroke="black" stroke-dasharray="none" stroke-width="2"/><path d="M 318.138671875,70 L 318.138671875 798" fill="none" stroke="black" stroke-dasharray="none" stroke-width="2"/><path d="M 588.9033203125,70 L 588.9033203125 798" fill="none" stroke="black" stroke-dasharray="none" stroke-width="2"/><g transform="translate(44.890625, 82)"><rect width="178.43359375" height="24" stroke="none" fill="white" stroke-width="0" transform="translate(0, 0)" rx="2"/><text fill="black" font-size="14" font-weight="bold" transform="translate(4, 4)" alignment-baseline="middle" font-family="Arial"><tspan x="0" dy="14" font-family="Arial" font-size="14" font-weight="bold">I want to create a new login</tspan></text></g><g transform="translate(78.8046875, 118)"><rect width="185.419921875" height="40" stroke="none" fill="white" stroke-width="0" transform="translate(0, 0)" rx="2"/><text fill="black" font-size="14" font-weight="normal" transform="translate(4, 4)" alignment-baseline="middle" font-family="Arial"><tspan x="0" dy="14" font-family="Arial" font-size="14" font-weight="normal">type username &amp; password, </tspan><tspan x="0" dy="14" font-family="Arial" font-size="14" font-weight="normal">click signup</tspan></text></g><g transform="translate(338.138671875, 170)"><rect width="250.798828125" height="40" stroke="none" fill="white" stroke-width="0" transform="translate(0, 0)" rx="2"/><text fill="black" font-size="14" font-weight="normal" transform="translate(4, 4)" alignment-baseline="middle" font-family="Arial"><tspan x="0" dy="14" font-family="Arial" font-size="14" font-weight="normal">grab the username &amp; password values </tspan><tspan x="0" dy="14" font-family="Arial" font-size="14" font-weight="normal">(triggered by eventlistener in JS)</tspan></text></g><g transform="translate(409.45556640625, 222)"><rect width="88.130859375" height="24" stroke="none" fill="white" stroke-width="0" transform="translate(0, 0)" rx="2"/><text fill="black" font-size="14" font-weight="normal" transform="translate(4, 4)" alignment-baseline="middle" font-family="Arial"><tspan x="0" dy="14" font-family="Arial" font-size="14" font-weight="normal">POST /users</tspan></text></g><g transform="translate(353.81103515625, 258)"><rect width="199.419921875" height="24" stroke="none" fill="white" stroke-width="0" transform="translate(0, 0)" rx="2"/><text fill="black" font-size="14" font-weight="normal" transform="translate(4, 4)" alignment-baseline="middle" font-family="Arial"><tspan x="0" dy="14" font-family="Arial" font-size="14" font-weight="normal">:( that username already exists</tspan></text></g><g transform="translate(338.138671875, 294)"><rect width="62.482421875" height="24" stroke="none" fill="white" stroke-width="0" transform="translate(0, 0)" rx="2"/><text fill="black" font-size="14" font-weight="normal" transform="translate(4, 4)" alignment-baseline="middle" font-family="Arial"><tspan x="0" dy="14" font-family="Arial" font-size="14" font-weight="normal">run code</tspan></text></g><g transform="translate(70.669921875, 330)"><rect width="201.689453125" height="24" stroke="none" fill="white" stroke-width="0" transform="translate(0, 0)" rx="2"/><text fill="black" font-size="14" font-weight="normal" transform="translate(4, 4)" alignment-baseline="middle" font-family="Arial"><tspan x="0" dy="14" font-family="Arial" font-size="14" font-weight="normal">displays 'please try again' page</tspan></text></g><g transform="translate(78.8046875, 366)"><rect width="185.419921875" height="40" stroke="none" fill="white" stroke-width="0" transform="translate(0, 0)" rx="2"/><text fill="black" font-size="14" font-weight="normal" transform="translate(4, 4)" alignment-baseline="middle" font-family="Arial"><tspan x="0" dy="14" font-family="Arial" font-size="14" font-weight="normal">type username &amp; password, </tspan><tspan x="0" dy="14" font-family="Arial" font-size="14" font-weight="normal">click signup</tspan></text></g><g transform="translate(338.138671875, 418)"><rect width="250.798828125" height="40" stroke="none" fill="white" stroke-width="0" transform="translate(0, 0)" rx="2"/><text fill="black" font-size="14" font-weight="normal" transform="translate(4, 4)" alignment-baseline="middle" font-family="Arial"><tspan x="0" dy="14" font-family="Arial" font-size="14" font-weight="normal">grab the username &amp; password values </tspan><tspan x="0" dy="14" font-family="Arial" font-size="14" font-weight="normal">(triggered by eventlistener in JS)</tspan></text></g><g transform="translate(409.45556640625, 470)"><rect width="88.130859375" height="24" stroke="none" fill="white" stroke-width="0" transform="translate(0, 0)" rx="2"/><text fill="black" font-size="14" font-weight="normal" transform="translate(4, 4)" alignment-baseline="middle" font-family="Arial"><tspan x="0" dy="14" font-family="Arial" font-size="14" font-weight="normal">POST /users</tspan></text></g><g transform="translate(342.138671875, 506)"><rect width="222.7646484375" height="40" stroke="none" fill="white" stroke-width="0" transform="translate(0, 0)" rx="2"/><text fill="black" font-size="14" font-weight="normal" transform="translate(4, 4)" alignment-baseline="middle" font-family="Arial"><tspan x="0" dy="14" font-family="Arial" font-size="14" font-weight="normal">this username &amp; password combo </tspan><tspan x="0" dy="14" font-family="Arial" font-size="14" font-weight="normal">is now associated with an id</tspan></text></g><g transform="translate(338.138671875, 558)"><rect width="172.978515625" height="24" stroke="none" fill="white" stroke-width="0" transform="translate(0, 0)" rx="2"/><text fill="black" font-size="14" font-weight="normal" transform="translate(4, 4)" alignment-baseline="middle" font-family="Arial"><tspan x="0" dy="14" font-family="Arial" font-size="14" font-weight="normal">run login code for this user</tspan></text></g><g transform="translate(399.33837890625, 594)"><rect width="108.365234375" height="24" stroke="none" fill="white" stroke-width="0" transform="translate(0, 0)" rx="2"/><text fill="black" font-size="14" font-weight="normal" transform="translate(4, 4)" alignment-baseline="middle" font-family="Arial"><tspan x="0" dy="14" font-family="Arial" font-size="14" font-weight="normal">POST /sessions</tspan></text></g><g transform="translate(351.0869140625, 630)"><rect width="204.8681640625" height="24" stroke="none" fill="white" stroke-width="0" transform="translate(0, 0)" rx="2"/><text fill="black" font-size="14" font-weight="normal" transform="translate(4, 4)" alignment-baseline="middle" font-family="Arial"><tspan x="0" dy="14" font-family="Arial" font-size="14" font-weight="normal">here is a session id for this user</tspan></text></g><g transform="translate(338.138671875, 666)"><rect width="191.654296875" height="56" stroke="none" fill="white" stroke-width="0" transform="translate(0, 0)" rx="2"/><text fill="black" font-size="14" font-weight="normal" transform="translate(4, 4)" alignment-baseline="middle" font-family="Arial"><tspan x="0" dy="14" font-family="Arial" font-size="14" font-weight="normal">Code to compile the page </tspan><tspan x="0" dy="14" font-family="Arial" font-size="14" font-weight="normal">completes, using the session </tspan><tspan x="0" dy="14" font-family="Arial" font-size="14" font-weight="normal">and user ids from API</tspan></text></g><g transform="translate(48.890625, 734)"><rect width="245.248046875" height="40" stroke="none" fill="white" stroke-width="0" transform="translate(0, 0)" rx="2"/><text fill="black" font-size="14" font-weight="bold" transform="translate(4, 4)" alignment-baseline="middle" font-family="Arial"><tspan x="0" dy="14" font-family="Arial" font-size="14" font-weight="bold">Page now welcomes user by name </tspan><tspan x="0" dy="14" font-family="Arial" font-size="14" font-weight="bold">and displays form for 'posting a quack'</tspan></text></g></svg>