<svg width="24" height="24" viewBox="0 0 24 24" xmlns="http://www.w3.org/2000/svg">
<path d="M15.9 13.02L10.86 18.06C10.7259 18.1936 10.5668 18.2995 10.3918 18.3715C10.2168 18.4436 10.0293 18.4805 9.84 18.48C9.45824 18.4783 9.09223 18.3276 8.82 18.06C8.68575 17.9262 8.57924 17.7673 8.50656 17.5922C8.43388 17.4172 8.39646 17.2295 8.39646 17.04C8.39646 16.8505 8.43388 16.6628 8.50656 16.4878C8.57924 16.3127 8.68575 16.1538 8.82 16.02L11.4 13.44H1.44C1.05809 13.44 0.691819 13.2883 0.421766 13.0182C0.151714 12.7482 0 12.3819 0 12C0 11.6181 0.151714 11.2518 0.421766 10.9818C0.691819 10.7117 1.05809 10.56 1.44 10.56H11.4L8.82 7.98C8.54948 7.70948 8.3975 7.34257 8.3975 6.96C8.3975 6.57743 8.54948 6.21052 8.82 5.94C9.09052 5.66948 9.45743 5.5175 9.84 5.5175C10.2226 5.5175 10.5895 5.66948 10.86 5.94L15.9 10.98C16.0342 11.1138 16.1408 11.2727 16.2134 11.4478C16.2861 11.6228 16.3235 11.8105 16.3235 12C16.3235 12.1895 16.2861 12.3772 16.2134 12.5522C16.1408 12.7273 16.0342 12.8862 15.9 13.02ZM21.6 0H14.88C14.4981 0 14.1318 0.151714 13.8618 0.421766C13.5917 0.691819 13.44 1.05809 13.44 1.44C13.44 1.82191 13.5917 2.18818 13.8618 2.45823C14.1318 2.72829 14.4981 2.88 14.88 2.88H21.12V21.12H14.88C14.4981 21.12 14.1318 21.2717 13.8618 21.5418C13.5917 21.8118 13.44 22.1781 13.44 22.56C13.44 22.9419 13.5917 23.3082 13.8618 23.5782C14.1318 23.8483 14.4981 24 14.88 24H21.6C22.2355 23.9968 22.8442 23.743 23.2936 23.2936C23.743 22.8442 23.9968 22.2355 24 21.6V2.4C23.9968 1.76445 23.743 1.15583 23.2936 0.706429C22.8442 0.257023 22.2355 0.00315414 21.6 0Z"/>
</svg>
