<svg height="24" width="24" xmlns="http://www.w3.org/2000/svg" viewBox="0 0 24 24">
  <path d="M23.58,13.02l-5.04,5.04c-.13,.13-.29,.24-.47,.31-.18,.07-.36,.11-.55,.11-.38,0-.75-.15-1.02-.42-.13-.13-.24-.29-.31-.47-.07-.17-.11-.36-.11-.55s.04-.38,.11-.55c.07-.18,.18-.33,.31-.47l2.58-2.58H9.12c-.38,0-.75-.15-1.02-.42-.27-.27-.42-.64-.42-1.02s.15-.75,.42-1.02c.27-.27,.64-.42,1.02-.42h9.96l-2.58-2.58c-.27-.27-.42-.64-.42-1.02s.15-.75,.42-1.02c.27-.27,.64-.42,1.02-.42s.75,.15,1.02,.42l5.04,5.04c.13,.13,.24,.29,.31,.47,.07,.18,.11,.36,.11,.55s-.04,.38-.11,.55c-.07,.18-.18,.33-.31,.47ZM2.4,24h6.72c.38,0,.75-.15,1.02-.42,.27-.27,.42-.64,.42-1.02s-.15-.75-.42-1.02c-.27-.27-.64-.42-1.02-.42H2.88V2.88h6.24c.38,0,.75-.15,1.02-.42,.27-.27,.42-.64,.42-1.02s-.15-.75-.42-1.02c-.27-.27-.64-.42-1.02-.42H2.4C1.76,0,1.16,.26,.71,.71S0,1.76,0,2.4V21.6c0,.64,.26,1.24,.71,1.69,.45,.45,1.06,.7,1.69,.71Z"/>
</svg>