<svg xmlns="http://www.w3.org/2000/svg" xmlns:xlink="http://www.w3.org/1999/xlink" width="500" zoomAndPan="magnify" viewBox="0 0 375 149.999998" height="200" preserveAspectRatio="xMidYMid meet" version="1.0"><defs><g/><clipPath id="00d0b52761"><path d="M 15 10.15625 L 356.25 10.15625 L 356.25 102.40625 L 15 102.40625 Z M 15 10.15625 " clip-rule="nonzero"/></clipPath></defs><g clip-path="url(#00d0b52761)"><path fill="#ffdbf3" d="M 15 10.15625 L 356.25 10.15625 L 356.25 102.40625 L 15 102.40625 Z M 15 10.15625 " fill-opacity="1" fill-rule="nonzero"/></g><g fill="#5271ff" fill-opacity="1"><g transform="translate(61.516631, 119.311776)"><g><path d="M 30.078125 -54.703125 C 33.109375 -54.703125 35.679688 -54.269531 37.796875 -53.40625 C 39.921875 -52.550781 41.992188 -51.34375 44.015625 -49.78125 C 44.578125 -49.320312 45.054688 -49.09375 45.453125 -49.09375 C 46.460938 -49.09375 47.117188 -50.609375 47.421875 -53.640625 L 49.171875 -53.640625 C 48.972656 -50.203125 48.875 -44.09375 48.875 -35.3125 L 47.125 -35.3125 C 46.664062 -39.039062 46.054688 -41.890625 45.296875 -43.859375 C 44.546875 -45.835938 43.257812 -47.554688 41.4375 -49.015625 C 40.175781 -50.234375 38.710938 -51.15625 37.046875 -51.78125 C 35.378906 -52.414062 33.640625 -52.734375 31.828125 -52.734375 C 26.722656 -52.734375 22.929688 -50.242188 20.453125 -45.265625 C 17.984375 -40.296875 16.75 -34.097656 16.75 -26.671875 C 16.75 -19.296875 18.035156 -13.128906 20.609375 -8.171875 C 23.179688 -3.222656 27.019531 -0.75 32.125 -0.75 C 33.84375 -0.75 35.546875 -1.066406 37.234375 -1.703125 C 38.929688 -2.335938 40.359375 -3.257812 41.515625 -4.46875 C 43.390625 -5.882812 44.691406 -7.648438 45.421875 -9.765625 C 46.148438 -11.890625 46.71875 -15 47.125 -19.09375 L 48.875 -19.09375 C 48.875 -9.945312 48.972656 -3.582031 49.171875 0 L 47.421875 0 C 47.273438 -1.613281 47.0625 -2.757812 46.78125 -3.4375 C 46.507812 -4.125 46.117188 -4.46875 45.609375 -4.46875 C 45.203125 -4.46875 44.671875 -4.265625 44.015625 -3.859375 C 41.742188 -2.242188 39.570312 -1.019531 37.5 -0.1875 C 35.425781 0.644531 32.925781 1.0625 30 1.0625 C 24.644531 1.0625 19.957031 -0.0195312 15.9375 -2.1875 C 11.925781 -4.363281 8.8125 -7.507812 6.59375 -11.625 C 4.375 -15.75 3.265625 -20.660156 3.265625 -26.359375 C 3.265625 -31.921875 4.398438 -36.847656 6.671875 -41.140625 C 8.941406 -45.429688 12.109375 -48.765625 16.171875 -51.140625 C 20.242188 -53.515625 24.878906 -54.703125 30.078125 -54.703125 Z M 30.078125 -54.703125 "/></g></g></g><g fill="#5271ff" fill-opacity="1"><g transform="translate(114.926132, 119.311776)"><g><path d="M 17.203125 -33.1875 C 19.472656 -37.882812 23.585938 -40.234375 29.546875 -40.234375 C 33.484375 -40.234375 36.257812 -39.25 37.875 -37.28125 C 38.738281 -36.320312 39.359375 -35.070312 39.734375 -33.53125 C 40.117188 -31.988281 40.3125 -29.953125 40.3125 -27.421875 L 40.3125 -7.046875 C 40.3125 -4.972656 40.660156 -3.546875 41.359375 -2.765625 C 42.066406 -1.984375 43.332031 -1.59375 45.15625 -1.59375 L 45.15625 0 C 39.90625 -0.195312 36.570312 -0.296875 35.15625 -0.296875 C 33.4375 -0.296875 30.15625 -0.195312 25.3125 0 L 25.3125 -1.59375 C 26.820312 -1.59375 27.878906 -1.984375 28.484375 -2.765625 C 29.085938 -3.546875 29.390625 -4.972656 29.390625 -7.046875 L 29.390625 -30.609375 C 29.390625 -32.679688 29.046875 -34.242188 28.359375 -35.296875 C 27.679688 -36.359375 26.460938 -36.890625 24.703125 -36.890625 C 22.578125 -36.890625 20.796875 -36.066406 19.359375 -34.421875 C 17.921875 -32.785156 17.203125 -30.707031 17.203125 -28.1875 L 17.203125 -7.046875 C 17.203125 -4.972656 17.503906 -3.546875 18.109375 -2.765625 C 18.710938 -1.984375 19.773438 -1.59375 21.296875 -1.59375 L 21.296875 0 C 16.441406 -0.195312 13.304688 -0.296875 11.890625 -0.296875 C 10.171875 -0.296875 6.6875 -0.195312 1.4375 0 L 1.4375 -1.59375 C 3.207031 -1.59375 4.457031 -1.984375 5.1875 -2.765625 C 5.914062 -3.546875 6.28125 -4.972656 6.28125 -7.046875 L 6.28125 -50.15625 C 6.28125 -52.476562 5.914062 -54.171875 5.1875 -55.234375 C 4.457031 -56.296875 3.207031 -56.828125 1.4375 -56.828125 L 1.4375 -58.421875 C 3.050781 -58.265625 4.617188 -58.1875 6.140625 -58.1875 C 10.535156 -58.1875 14.222656 -58.539062 17.203125 -59.25 Z M 17.203125 -33.1875 "/></g></g></g><g fill="#5271ff" fill-opacity="1"><g transform="translate(160.987106, 119.311776)"><g><path d="M 11.671875 -58.71875 C 13.796875 -58.71875 15.472656 -58.195312 16.703125 -57.15625 C 17.941406 -56.125 18.5625 -54.703125 18.5625 -52.890625 C 18.5625 -51.066406 17.941406 -49.632812 16.703125 -48.59375 C 15.472656 -47.5625 13.796875 -47.046875 11.671875 -47.046875 C 9.546875 -47.046875 7.863281 -47.5625 6.625 -48.59375 C 5.394531 -49.632812 4.78125 -51.066406 4.78125 -52.890625 C 4.78125 -54.703125 5.394531 -56.125 6.625 -57.15625 C 7.863281 -58.195312 9.546875 -58.71875 11.671875 -58.71875 Z M 17.578125 -7.046875 C 17.578125 -4.972656 17.941406 -3.546875 18.671875 -2.765625 C 19.410156 -1.984375 20.660156 -1.59375 22.421875 -1.59375 L 22.421875 0 C 17.367188 -0.195312 14.007812 -0.296875 12.34375 -0.296875 C 10.78125 -0.296875 7.269531 -0.195312 1.8125 0 L 1.8125 -1.59375 C 3.632812 -1.59375 4.898438 -1.984375 5.609375 -2.765625 C 6.316406 -3.546875 6.671875 -4.972656 6.671875 -7.046875 L 6.671875 -30.90625 C 6.671875 -33.226562 6.316406 -34.921875 5.609375 -35.984375 C 4.898438 -37.046875 3.632812 -37.578125 1.8125 -37.578125 L 1.8125 -39.171875 C 3.4375 -39.015625 5.003906 -38.9375 6.515625 -38.9375 C 11.015625 -38.9375 14.703125 -39.289062 17.578125 -40 Z M 17.578125 -7.046875 "/></g></g></g><g fill="#5271ff" fill-opacity="1"><g transform="translate(184.850937, 119.311776)"><g><path d="M 17.203125 -39.171875 L 26.140625 -39.171875 L 26.140625 -37.65625 L 17.203125 -37.65625 L 17.203125 -7.046875 C 17.203125 -5.523438 17.46875 -4.445312 18 -3.8125 C 18.53125 -3.1875 19.375 -2.875 20.53125 -2.875 C 22.707031 -2.875 24.425781 -4.390625 25.6875 -7.421875 L 26.96875 -6.75 C 25.050781 -1.539062 21.59375 1.0625 16.59375 1.0625 C 13.257812 1.0625 10.734375 0.203125 9.015625 -1.515625 C 7.953125 -2.578125 7.226562 -3.898438 6.84375 -5.484375 C 6.46875 -7.078125 6.28125 -9.265625 6.28125 -12.046875 L 6.28125 -37.65625 L -0.078125 -37.65625 L -0.078125 -39.171875 L 6.28125 -39.171875 L 6.28125 -49.171875 C 10.476562 -49.171875 14.117188 -49.976562 17.203125 -51.59375 Z M 17.203125 -39.171875 "/></g></g></g><g fill="#5271ff" fill-opacity="1"><g transform="translate(211.51782, 119.311776)"><g><path d="M 17.203125 -39.171875 L 26.140625 -39.171875 L 26.140625 -37.65625 L 17.203125 -37.65625 L 17.203125 -7.046875 C 17.203125 -5.523438 17.46875 -4.445312 18 -3.8125 C 18.53125 -3.1875 19.375 -2.875 20.53125 -2.875 C 22.707031 -2.875 24.425781 -4.390625 25.6875 -7.421875 L 26.96875 -6.75 C 25.050781 -1.539062 21.59375 1.0625 16.59375 1.0625 C 13.257812 1.0625 10.734375 0.203125 9.015625 -1.515625 C 7.953125 -2.578125 7.226562 -3.898438 6.84375 -5.484375 C 6.46875 -7.078125 6.28125 -9.265625 6.28125 -12.046875 L 6.28125 -37.65625 L -0.078125 -37.65625 L -0.078125 -39.171875 L 6.28125 -39.171875 L 6.28125 -49.171875 C 10.476562 -49.171875 14.117188 -49.976562 17.203125 -51.59375 Z M 17.203125 -39.171875 "/></g></g></g><g fill="#5271ff" fill-opacity="1"><g transform="translate(238.184703, 119.311776)"><g><path d="M 24.09375 -5.15625 C 28.238281 -5.15625 31.570312 -7.175781 34.09375 -11.21875 L 35.453125 -10.765625 C 34.441406 -7.472656 32.632812 -4.675781 30.03125 -2.375 C 27.4375 -0.0820312 24.195312 1.0625 20.3125 1.0625 C 14.957031 1.0625 10.695312 -0.640625 7.53125 -4.046875 C 4.375 -7.460938 2.796875 -12.503906 2.796875 -19.171875 C 2.796875 -25.984375 4.488281 -31.195312 7.875 -34.8125 C 11.257812 -38.425781 15.753906 -40.234375 21.359375 -40.234375 C 30.859375 -40.234375 35.609375 -34.625 35.609375 -23.40625 L 14.3125 -23.40625 C 14.269531 -22.65625 14.25 -21.46875 14.25 -19.84375 C 14.25 -16.507812 14.710938 -13.734375 15.640625 -11.515625 C 16.578125 -9.296875 17.789062 -7.679688 19.28125 -6.671875 C 20.769531 -5.660156 22.375 -5.15625 24.09375 -5.15625 Z M 20.90625 -38.640625 C 19.09375 -38.640625 17.59375 -37.515625 16.40625 -35.265625 C 15.21875 -33.015625 14.472656 -29.539062 14.171875 -24.84375 L 26.0625 -24.84375 C 26.164062 -28.84375 25.773438 -32.140625 24.890625 -34.734375 C 24.003906 -37.335938 22.675781 -38.640625 20.90625 -38.640625 Z M 20.90625 -38.640625 "/></g></g></g><g fill="#5271ff" fill-opacity="1"><g transform="translate(276.366825, 119.311776)"><g><path d="M 27.875 -40.234375 C 30.15625 -40.234375 31.875 -39.550781 33.03125 -38.1875 C 34.195312 -36.820312 34.78125 -35.179688 34.78125 -33.265625 C 34.78125 -31.390625 34.234375 -29.859375 33.140625 -28.671875 C 32.054688 -27.484375 30.628906 -26.890625 28.859375 -26.890625 C 27.148438 -26.890625 25.789062 -27.332031 24.78125 -28.21875 C 23.769531 -29.101562 23.265625 -30.28125 23.265625 -31.75 C 23.265625 -34.164062 24.375 -36.132812 26.59375 -37.65625 C 26.394531 -37.707031 26.09375 -37.734375 25.6875 -37.734375 C 25.175781 -37.734375 24.769531 -37.679688 24.46875 -37.578125 C 22.550781 -37.273438 20.921875 -36.113281 19.578125 -34.09375 C 18.242188 -32.070312 17.578125 -30 17.578125 -27.875 L 17.578125 -7.796875 C 17.578125 -5.472656 18.144531 -3.859375 19.28125 -2.953125 C 20.414062 -2.046875 22.222656 -1.59375 24.703125 -1.59375 L 24.703125 0 C 23.992188 0 23.410156 -0.0234375 22.953125 -0.078125 C 17.804688 -0.222656 14.375 -0.296875 12.65625 -0.296875 C 11.289062 -0.296875 8.179688 -0.222656 3.328125 -0.078125 C 2.929688 -0.0234375 2.425781 0 1.8125 0 L 1.8125 -1.59375 C 3.632812 -1.59375 4.898438 -1.984375 5.609375 -2.765625 C 6.316406 -3.546875 6.671875 -4.972656 6.671875 -7.046875 L 6.671875 -30.90625 C 6.671875 -33.226562 6.316406 -34.921875 5.609375 -35.984375 C 4.898438 -37.046875 3.632812 -37.578125 1.8125 -37.578125 L 1.8125 -39.171875 C 3.4375 -39.015625 5.003906 -38.9375 6.515625 -38.9375 C 11.015625 -38.9375 14.703125 -39.289062 17.578125 -40 L 17.578125 -32.953125 C 18.535156 -35.128906 19.921875 -36.882812 21.734375 -38.21875 C 23.554688 -39.5625 25.601562 -40.234375 27.875 -40.234375 Z M 27.875 -40.234375 "/></g></g></g><g fill="#5271ff" fill-opacity="1"><g transform="translate(203.430498, 138.130515)"><g><path d="M 2.125 -0.875 L 5.625 -0.875 L 5.625 0 L 1.203125 0 L 1.203125 -8 L 2.125 -8 Z M 2.125 -0.875 "/></g></g></g><g fill="#5271ff" fill-opacity="1"><g transform="translate(210.815818, 138.130515)"><g><path d="M 6.640625 -7.109375 L 2.125 -7.109375 L 2.125 -4.484375 L 6.15625 -4.484375 L 6.15625 -3.609375 L 2.125 -3.609375 L 2.125 -0.875 L 6.78125 -0.875 L 6.78125 0 L 1.203125 0 L 1.203125 -8 L 6.640625 -8 Z M 6.640625 -7.109375 "/></g></g></g><g fill="#5271ff" fill-opacity="1"><g transform="translate(219.730718, 138.130515)"><g><path d="M 6.265625 -7.109375 L 3.640625 -7.109375 L 3.640625 0 L 2.734375 0 L 2.734375 -7.109375 L 0.125 -7.109375 L 0.125 -8 L 6.265625 -8 Z M 6.265625 -7.109375 "/></g></g></g><g fill="#5271ff" fill-opacity="1"><g transform="translate(227.584043, 138.130515)"><g><path d="M 3.59375 -8.03125 C 4.539062 -8.03125 5.382812 -7.78125 6.125 -7.28125 L 5.734375 -6.4375 C 5.066406 -6.882812 4.332031 -7.109375 3.53125 -7.109375 C 3.007812 -7.109375 2.59375 -7.015625 2.28125 -6.828125 C 1.976562 -6.640625 1.828125 -6.378906 1.828125 -6.046875 C 1.828125 -5.722656 1.9375 -5.453125 2.15625 -5.234375 C 2.375 -5.023438 2.648438 -4.867188 2.984375 -4.765625 C 3.328125 -4.660156 3.691406 -4.539062 4.078125 -4.40625 C 4.460938 -4.28125 4.820312 -4.144531 5.15625 -4 C 5.488281 -3.851562 5.765625 -3.617188 5.984375 -3.296875 C 6.203125 -2.984375 6.3125 -2.601562 6.3125 -2.15625 C 6.3125 -1.5 6.046875 -0.96875 5.515625 -0.5625 C 4.984375 -0.164062 4.285156 0.03125 3.421875 0.03125 C 2.847656 0.03125 2.289062 -0.078125 1.75 -0.296875 C 1.21875 -0.515625 0.753906 -0.8125 0.359375 -1.1875 L 0.78125 -2.015625 C 1.144531 -1.648438 1.5625 -1.367188 2.03125 -1.171875 C 2.507812 -0.972656 2.976562 -0.875 3.4375 -0.875 C 4.019531 -0.875 4.476562 -0.984375 4.8125 -1.203125 C 5.144531 -1.429688 5.3125 -1.734375 5.3125 -2.109375 C 5.3125 -2.390625 5.226562 -2.628906 5.0625 -2.828125 C 4.894531 -3.023438 4.679688 -3.175781 4.421875 -3.28125 C 4.160156 -3.394531 3.867188 -3.5 3.546875 -3.59375 C 3.234375 -3.695312 2.914062 -3.800781 2.59375 -3.90625 C 2.269531 -4.019531 1.972656 -4.15625 1.703125 -4.3125 C 1.441406 -4.46875 1.226562 -4.679688 1.0625 -4.953125 C 0.90625 -5.234375 0.828125 -5.570312 0.828125 -5.96875 C 0.828125 -6.59375 1.078125 -7.09375 1.578125 -7.46875 C 2.085938 -7.84375 2.757812 -8.03125 3.59375 -8.03125 Z M 3.59375 -8.03125 "/></g></g></g><g fill="#5271ff" fill-opacity="1"><g transform="translate(236.042346, 138.130515)"><g/></g></g><g fill="#5271ff" fill-opacity="1"><g transform="translate(240.653892, 138.130515)"><g><path d="M 4.625 -8.015625 C 5.164062 -8.015625 5.691406 -7.910156 6.203125 -7.703125 C 6.710938 -7.503906 7.160156 -7.222656 7.546875 -6.859375 L 7 -6.15625 C 6.34375 -6.820312 5.554688 -7.15625 4.640625 -7.15625 C 3.734375 -7.15625 2.960938 -6.847656 2.328125 -6.234375 C 1.691406 -5.628906 1.375 -4.890625 1.375 -4.015625 C 1.375 -3.140625 1.691406 -2.394531 2.328125 -1.78125 C 2.972656 -1.164062 3.742188 -0.859375 4.640625 -0.859375 C 5.535156 -0.859375 6.320312 -1.175781 7 -1.8125 L 7.5625 -1.1875 C 6.6875 -0.363281 5.695312 0.046875 4.59375 0.046875 C 3.4375 0.046875 2.457031 -0.34375 1.65625 -1.125 C 0.851562 -1.914062 0.453125 -2.878906 0.453125 -4.015625 C 0.453125 -5.128906 0.859375 -6.070312 1.671875 -6.84375 C 2.484375 -7.625 3.46875 -8.015625 4.625 -8.015625 Z M 4.625 -8.015625 "/></g></g></g><g fill="#5271ff" fill-opacity="1"><g transform="translate(250.128109, 138.130515)"><g><path d="M 4.65625 -8.015625 C 5.8125 -8.015625 6.796875 -7.625 7.609375 -6.84375 C 8.421875 -6.070312 8.828125 -5.125 8.828125 -4 C 8.828125 -2.875 8.421875 -1.914062 7.609375 -1.125 C 6.796875 -0.34375 5.8125 0.046875 4.65625 0.046875 C 3.476562 0.046875 2.484375 -0.34375 1.671875 -1.125 C 0.859375 -1.914062 0.453125 -2.875 0.453125 -4 C 0.453125 -5.125 0.859375 -6.070312 1.671875 -6.84375 C 2.484375 -7.625 3.476562 -8.015625 4.65625 -8.015625 Z M 4.65625 -7.15625 C 3.75 -7.15625 2.972656 -6.847656 2.328125 -6.234375 C 1.691406 -5.617188 1.375 -4.875 1.375 -4 C 1.375 -3.125 1.691406 -2.375 2.328125 -1.75 C 2.972656 -1.132812 3.75 -0.828125 4.65625 -0.828125 C 5.539062 -0.828125 6.300781 -1.132812 6.9375 -1.75 C 7.570312 -2.375 7.890625 -3.125 7.890625 -4 C 7.890625 -4.875 7.570312 -5.617188 6.9375 -6.234375 C 6.300781 -6.847656 5.539062 -7.15625 4.65625 -7.15625 Z M 4.65625 -7.15625 "/></g></g></g><g fill="#5271ff" fill-opacity="1"><g transform="translate(260.892196, 138.130515)"><g><path d="M 7.859375 0 L 6.921875 0 L 2.125 -6.421875 L 2.125 0 L 1.203125 0 L 1.203125 -8 L 2.15625 -8 L 6.953125 -1.5625 L 6.953125 -8 L 7.859375 -8 Z M 7.859375 0 "/></g></g></g><g fill="#5271ff" fill-opacity="1"><g transform="translate(271.450815, 138.130515)"><g><path d="M 7.859375 0 L 6.921875 0 L 2.125 -6.421875 L 2.125 0 L 1.203125 0 L 1.203125 -8 L 2.15625 -8 L 6.953125 -1.5625 L 6.953125 -8 L 7.859375 -8 Z M 7.859375 0 "/></g></g></g><g fill="#5271ff" fill-opacity="1"><g transform="translate(282.009435, 138.130515)"><g><path d="M 6.640625 -7.109375 L 2.125 -7.109375 L 2.125 -4.484375 L 6.15625 -4.484375 L 6.15625 -3.609375 L 2.125 -3.609375 L 2.125 -0.875 L 6.78125 -0.875 L 6.78125 0 L 1.203125 0 L 1.203125 -8 L 6.640625 -8 Z M 6.640625 -7.109375 "/></g></g></g><g fill="#5271ff" fill-opacity="1"><g transform="translate(290.924333, 138.130515)"><g><path d="M 4.625 -8.015625 C 5.164062 -8.015625 5.691406 -7.910156 6.203125 -7.703125 C 6.710938 -7.503906 7.160156 -7.222656 7.546875 -6.859375 L 7 -6.15625 C 6.34375 -6.820312 5.554688 -7.15625 4.640625 -7.15625 C 3.734375 -7.15625 2.960938 -6.847656 2.328125 -6.234375 C 1.691406 -5.628906 1.375 -4.890625 1.375 -4.015625 C 1.375 -3.140625 1.691406 -2.394531 2.328125 -1.78125 C 2.972656 -1.164062 3.742188 -0.859375 4.640625 -0.859375 C 5.535156 -0.859375 6.320312 -1.175781 7 -1.8125 L 7.5625 -1.1875 C 6.6875 -0.363281 5.695312 0.046875 4.59375 0.046875 C 3.4375 0.046875 2.457031 -0.34375 1.65625 -1.125 C 0.851562 -1.914062 0.453125 -2.878906 0.453125 -4.015625 C 0.453125 -5.128906 0.859375 -6.070312 1.671875 -6.84375 C 2.484375 -7.625 3.46875 -8.015625 4.625 -8.015625 Z M 4.625 -8.015625 "/></g></g></g><g fill="#5271ff" fill-opacity="1"><g transform="translate(300.398547, 138.130515)"><g><path d="M 6.265625 -7.109375 L 3.640625 -7.109375 L 3.640625 0 L 2.734375 0 L 2.734375 -7.109375 L 0.125 -7.109375 L 0.125 -8 L 6.265625 -8 Z M 6.265625 -7.109375 "/></g></g></g></svg>